<?xml version="1.0" encoding="iso-8859-1"?>
<!-- Generator: Adobe Illustrator 17.1.0, SVG Export Plug-In . SVG Version: 6.00 Build 0)  -->
<!DOCTYPE svg PUBLIC "-//W3C//DTD SVG 1.1//EN" "http://www.w3.org/Graphics/SVG/1.1/DTD/svg11.dtd">
<svg version="1.1" id="Capa_1" xmlns="http://www.w3.org/2000/svg" xmlns:xlink="http://www.w3.org/1999/xlink" x="0px" y="0px"
	 viewBox="0 0 200 200" style="enable-background:new 0 0 200 200;" xml:space="preserve">
<g>
	<path d="M100,4.667C47.349,4.667,4.667,47.349,4.667,100S47.349,195.333,100,195.333s95.333-42.682,95.333-95.333
		S152.651,4.667,100,4.667z M100,178.313c-43.183,0-78.313-35.131-78.313-78.313S56.817,21.687,100,21.687
		S178.313,56.817,178.313,100S143.183,178.313,100,178.313z"/>
	<path d="M59.556,77.033H39.942C38.004,82.084,36.68,87.434,36.074,93H57.94C58.19,87.538,58.736,82.193,59.556,77.033z"/>
	<path d="M47.42,63.033h15.171c1.672-5.974,3.75-11.549,6.225-16.56c0.646-1.308,1.321-2.549,2.008-3.76
		C61.469,47.498,53.436,54.502,47.42,63.033z"/>
	<path d="M140.444,122.967h19.614c1.938-5.051,3.262-10.401,3.867-15.967H142.06C141.81,112.462,141.264,117.807,140.444,122.967z"
		/>
	<path d="M142.06,93h21.866c-0.605-5.566-1.929-10.916-3.867-15.967h-19.614C141.264,82.193,141.81,87.538,142.06,93z"/>
	<path d="M131.184,153.526c-0.646,1.308-1.321,2.549-2.008,3.76c9.356-4.784,17.388-11.788,23.404-20.319h-15.171
		C135.737,142.94,133.659,148.516,131.184,153.526z"/>
	<path d="M137.408,63.033h15.171c-6.016-8.531-14.048-15.535-23.404-20.319c0.687,1.211,1.362,2.452,2.008,3.76
		C133.659,51.484,135.737,57.06,137.408,63.033z"/>
	<path d="M62.592,136.967H47.42c6.016,8.531,14.048,15.535,23.404,20.319c-0.687-1.211-1.362-2.452-2.008-3.76
		C66.341,148.516,64.263,142.94,62.592,136.967z"/>
	<path d="M57.94,107H36.074c0.605,5.566,1.929,10.916,3.867,15.967h19.614C58.736,117.807,58.19,112.462,57.94,107z"/>
	<path d="M107,38.011v25.022h15.826C118.83,50.74,113.049,41.951,107,38.011z"/>
	<path d="M77.174,63.033H93V38.011C86.951,41.951,81.17,50.74,77.174,63.033z"/>
	<path d="M73.723,122.967H93V107H71.948C72.227,112.639,72.839,117.979,73.723,122.967z"/>
	<path d="M71.948,93H93V77.033H73.723C72.839,82.021,72.227,87.361,71.948,93z"/>
	<path d="M107,77.033V93h21.052c-0.279-5.639-0.892-10.979-1.775-15.967H107z"/>
	<path d="M107,122.967h19.277c0.883-4.987,1.496-10.327,1.775-15.967H107V122.967z"/>
	<path d="M93,161.989v-25.022H77.174C81.17,149.26,86.951,158.049,93,161.989z"/>
	<path d="M107,161.989c6.049-3.939,11.83-12.728,15.826-25.022H107V161.989z"/>
</g>
</svg>
